<?xml version="1.0" encoding="utf-8"?>
<!-- Generator: Adobe Illustrator 21.0.2, SVG Export Plug-In . SVG Version: 6.00 Build 0)  -->
<svg version="1.1" id="Layer_1" xmlns="http://www.w3.org/2000/svg" xmlns:xlink="http://www.w3.org/1999/xlink" x="0px" y="0px"
	 viewBox="0 0 800 800" style="enable-background:new 0 0 800 800;" xml:space="preserve">
<style type="text/css">
	.st0{fill-rule:evenodd;clip-rule:evenodd;}
</style>
<g>
	<path class="st0" d="M398.9,150.9c-138.1,0-250,111.9-250,250s111.9,250,250,250s250-111.9,250-250S537,150.9,398.9,150.9
		L398.9,150.9z M412.1,543.5l-0.1,48.1h-29.1v-46.3c-26.9-0.5-54.2-8.9-70.4-20.4l11.1-31c16.2,10.7,40.3,19.9,66.2,19.9
		c32.9,0,52.1-18.9,52.1-45.4c0-25.4-15.1-41.2-49.3-55.1c-47.2-18.5-76.4-40.3-76.3-80.5c0-38.4,27.2-67.5,69.4-74.5V212h29.2
		l-0.1,45c27.4,0.9,46.3,8.3,60.2,16.2l-11.5,30.5c-9.7-5.5-28.7-16.2-58.4-16.2c-35.6,0-46,21.3-46,40.3
		c0,23.6,14.1,35.6,54.4,52.7c47.7,19.5,71.7,43.1,71.7,84.3C485.2,501.8,459.8,536.1,412.1,543.5L412.1,543.5z"/>
</g>
</svg>
