<?xml version="1.0" encoding="utf-8"?>
<!-- Generator: Adobe Illustrator 21.0.2, SVG Export Plug-In . SVG Version: 6.00 Build 0)  -->
<svg version="1.1" id="Layer_1" xmlns="http://www.w3.org/2000/svg" xmlns:xlink="http://www.w3.org/1999/xlink" x="0px" y="0px"
	 viewBox="0 0 800 800" style="enable-background:new 0 0 800 800;" xml:space="preserve">
<style type="text/css">
	.st0{fill-rule:evenodd;clip-rule:evenodd;}
</style>
<g>
	<path class="st0" d="M699.8,281.9C654.3,158.2,536.8,70,399.1,70S144,158.2,98.4,281.9C45.2,288.9,4,334.5,4,389.6
		c0,53.5,38.6,97.8,89.4,106.9c21,4.6,44.2,2.9,44.2,2.9c-12.1-31.9-18.8-66.6-18.8-102.8c0-157.5,125.5-285.1,280.3-285.1
		s280.3,127.7,280.3,285.2c0,117.3-69.6,218-169.1,261.8c-7.4-6.9-17.3-11.3-28.3-11.3c-22.8,0-41.3,18.5-41.3,41.3
		c0,22.8,18.5,41.3,41.3,41.3c19.5,0,35.8-13.4,40.2-31.5c86.4-36.5,153.9-110.4,182.7-201.7c50.8-9.1,89.4-53.5,89.4-106.9
		C794.3,334.5,753.1,289,699.8,281.9L699.8,281.9z"/>
	<path class="st0" d="M649.1,397.2c0-138.1-112-250-250-250c-138.1,0-250,111.9-250,250c0,138,111.9,250,250,250
		C537.1,647.2,649.1,535.2,649.1,397.2L649.1,397.2z M399.1,595.2c-135.3,0-194-79.1-208-201.9c-1-8.6,8.3-14.6,15.8-10.2
		c57.5,33.5,123.3,52.4,192.2,52.4s134.7-18.9,192.2-52.4c7.5-4.4,16.8,1.6,15.8,10.2C593.1,516.1,534.4,595.2,399.1,595.2
		L399.1,595.2z"/>
</g>
</svg>
