<?xml version="1.0" encoding="utf-8"?>
<!-- Generator: Adobe Illustrator 21.0.2, SVG Export Plug-In . SVG Version: 6.00 Build 0)  -->
<svg version="1.1" id="Layer_1" xmlns="http://www.w3.org/2000/svg" xmlns:xlink="http://www.w3.org/1999/xlink" x="0px" y="0px"
	 viewBox="0 0 800 800" style="enable-background:new 0 0 800 800;" xml:space="preserve">
<style type="text/css">
	.st0{fill-rule:evenodd;clip-rule:evenodd;}
</style>
<g>
	<path class="st0" d="M398.9,150.9c-138.1,0-250,111.9-250,250s111.9,250,250,250s250-111.9,250-250S537,150.9,398.9,150.9
		L398.9,150.9z M397.3,574.5c-15,0-27.1-12.1-27.1-27.1c0-15,12.1-27.1,27.1-27.1c15,0,27.1,12.1,27.1,27.1
		C424.4,562.4,412.3,574.5,397.3,574.5L397.3,574.5z M495.4,355.2c-4.9,10.3-15.4,23.2-31.4,38.6c-16,15.4-26.7,26.4-31.9,32.9
		c-5.2,6.5-9.2,14.3-11.9,23.3c-2.7,9-3.9,21.2-3.6,36.4h-41.9c0-17.8,1.4-32,4.3-42.6c2.9-10.6,7.2-19.9,12.9-27.9
		c5.7-7.9,16-19.6,31-35c14.9-15.4,24.5-26.6,28.8-33.6c4.3-7,6.4-17.4,6.4-31.2c0-13.8-4.9-26-14.8-36.7c-9.8-10.6-24.1-16-42.9-16
		c-42.2,0-63.4,25.1-63.4,75.3h-41.9c0.6-22.9,3.3-40.2,8.1-52.2c4.8-11.9,12.4-22.5,22.9-31.9c10.5-9.4,22.1-16.3,35-20.7
		c12.9-4.4,26.4-6.7,40.7-6.7c28.9,0,52.9,8.5,72.2,25.5c19.2,17,28.8,39.6,28.8,67.9C502.7,333.4,500.3,344.9,495.4,355.2
		L495.4,355.2z"/>
</g>
</svg>
