<?xml version="1.0" encoding="utf-8"?>
<!-- Generator: Adobe Illustrator 21.0.2, SVG Export Plug-In . SVG Version: 6.00 Build 0)  -->
<svg version="1.1" id="Layer_1" xmlns="http://www.w3.org/2000/svg" xmlns:xlink="http://www.w3.org/1999/xlink" x="0px" y="0px"
	 viewBox="0 0 800 800" style="enable-background:new 0 0 800 800;" xml:space="preserve">
<path d="M398.9,150.9c-138.1,0-250,111.9-250,250c0,138,111.9,250,250,250c138,0,250-112,250-250
	C648.9,262.8,536.9,150.9,398.9,150.9z M492.7,275.9c17.3,0,31.3,21,31.3,46.9c0,25.9-14,46.9-31.3,46.9s-31.3-21-31.3-46.9
	C461.4,296.8,475.4,275.9,492.7,275.9z M305.2,275.9c17.3,0,31.3,21,31.3,46.9c0,25.9-14,46.9-31.3,46.9s-31.3-21-31.3-46.9
	C273.9,296.8,287.9,275.9,305.2,275.9z M398.9,598.9c-135.3,0-194-79.1-208-201.9c-1-8.6,8.3-14.6,15.8-10.2
	c57.5,33.5,123.3,52.4,192.2,52.4s134.7-18.9,192.2-52.4c7.5-4.4,16.8,1.6,15.8,10.2C592.9,519.8,534.2,598.9,398.9,598.9z"/>
</svg>
